<svg height="480pt" viewBox="-56 0 480 480" width="480pt" xmlns="http://www.w3.org/2000/svg"><path d="m360 0h-304c-30.914062.0351562-55.9648438 25.085938-56 56v368c.0390625 30.910156 25.089844 55.960938 56 56h288c4.417969 0 8-3.582031 8-8v-88h8c4.417969 0 8-3.582031 8-8v-368c0-4.417969-3.582031-8-8-8zm-344 384.839844v-328.839844c.027344-22.082031 17.917969-39.972656 40-40h8v352h-8c-1.921875 0-3.847656.101562-5.761719.296875-.621093.0625-1.222656.199219-1.847656.277344-1.253906.179687-2.511719.328125-3.734375.585937-.800781.160156-1.511719.390625-2.273438.582032-1.039062.265624-2.09375.496093-3.117187.800781-.800781.257812-1.601563.585937-2.402344.882812-.925781.335938-1.871093.644531-2.773437 1.03125-.90625.382813-1.601563.75-2.347656 1.128907-.742188.375-1.734376.796874-2.574219 1.261718-.839844.464844-1.503907.914063-2.257813 1.367188-.75.457031-1.597656.953125-2.398437 1.472656s-1.441407 1.074219-2.160157 1.601562c-.71875.527344-1.464843 1.0625-2.160156 1.648438-.695312.582031-1.359375 1.230469-2.039062 1.847656-.679688.613282-1.328125 1.175782-1.953125 1.808594-.039063.109375-.128907.207031-.199219.246094zm320 31.160156h-280v16h280v32h-280c-22.074219-.039062-39.960938-17.925781-40-40 .027344-22.082031 17.917969-39.972656 40-40h280zm16-48h-272v-352h272zm0 0"/><path d="m212.167969 271.023438c2.386719 1.304687 5.277343 1.304687 7.664062 0 3.761719-2.054688 92.167969-50.871094 92.167969-103.023438.003906-22.753906-13.761719-43.25-34.832031-51.851562-21.066407-8.601563-45.242188-3.601563-61.167969 12.652343-15.925781-16.253906-40.101562-21.253906-61.167969-12.652343-21.070312 8.601562-34.835937 29.097656-34.832031 51.851562 0 52.152344 88.40625 100.96875 92.167969 103.023438zm-36.167969-143.023438c13.414062-.007812 25.9375 6.722656 33.335938 17.910156 1.566406 2.109375 4.039062 3.351563 6.664062 3.351563s5.097656-1.242188 6.664062-3.351563c9.75-14.699218 27.980469-21.28125 44.871094-16.191406 16.890625 5.085938 28.457032 20.640625 28.464844 38.28125 0 33.601562-54.519531 72.105469-80 86.824219-25.488281-14.695313-80-53.152344-80-86.824219.027344-22.082031 17.917969-39.972656 40-40zm0 0"/></svg>