<svg id="Layer_1" enable-background="new 0 0 512 512" height="512" viewBox="0 0 512 512" width="512" xmlns="http://www.w3.org/2000/svg"><g><g><path d="m471.034 42.763c0-9.224-3.58-17.874-10.071-24.346-6.481-6.481-15.127-10.049-24.346-10.049s-17.865 3.569-24.346 10.049l-79.951 79.954c-11.702-10.195-26.586-17.032-42.858-19.561-.5-2.152-1.028-4.235-1.539-6.247-5.012-19.763-7.774-30.649 24.786-46.883 3.548-1.769 5.716-5.467 5.527-9.426-.189-3.96-2.7-7.435-6.4-8.858-36.845-14.165-78.81-7.781-116.347 17.409-25.047-23.71-64.477-26.816-78.714-15.123-9.395 7.718-12.563 24.663-12.395 37.946.136 10.779 2.548 31.516 17.179 49.297 2.806 3.4 5.686 6.422 8.635 9.071-6.355 17.21-8.829 34.321-7.271 50.264-10.494 4.412-19.952 11.371-27.635 20.731-14.522-2.118-27.668.039-34.685 5.803-9.395 7.718-12.563 24.663-12.395 37.946.106 8.374 1.589 22.76 9.101 37.095-9.747 5.525-16.344 15.989-16.344 27.971 0 16.275 12.163 29.753 27.875 31.845l29.161 163.486c3.29 18.459 16.347 30.862 32.49 30.862h220.465c16.101 0 29.156-12.393 32.49-30.861l29.161-163.487c15.711-2.092 27.875-15.57 27.875-31.845 0-17.72-14.416-32.136-32.135-32.136h-2.724c5.514-26.911-1.046-46.874-8.17-59.461-7.524-13.293-19.246-24.354-32.448-31.142l95.947-95.95c6.502-6.48 10.082-15.13 10.082-24.354zm-341.563-17.625c5.148-4.19 38.202-3.548 56.528 18.723 7.694 9.35 11.286 18.06 10.675 25.884-.014.179-.023.356-.027.535-.213 8.766-4.307 17.064-11.233 22.77-6.933 5.71-15.874 8.143-24.537 6.669-.174-.03-.349-.055-.525-.075-7.791-.902-15.653-6.1-23.357-15.436-18.33-22.278-12.62-54.827-7.524-59.07zm5.875 147.775c.196-.026.394-.06.59-.099.75-.147 1.463-.375 2.133-.672 15.195-3.857 32.584-.968 48.938 9.167 4.694 2.908 10.859 1.461 13.769-3.233 2.909-4.695 1.462-10.859-3.234-13.768-17.851-11.062-37.115-15.304-54.958-13.201-.592-10.819 1.099-22.382 4.983-34.187 3.344 1.272 6.75 2.136 10.215 2.559 2.692.443 5.396.661 8.09.661 11.626 0 23.044-4.064 32.258-11.654 11.341-9.341 18.075-22.981 18.504-37.456.72-10.052-2.149-20.307-8.515-30.596 24.313-15.884 50.44-22.684 74.912-19.733-8.219 6.67-13.474 13.827-16.134 21.817-4.103 12.327-1.184 23.834 1.638 34.962 4.997 19.7 9.312 36.713-23.23 61.689-4.382 3.363-5.207 9.64-1.845 14.022 3.362 4.38 9.64 5.207 14.022 1.844 26.58-20.4 33.953-39.119 34.457-55.373 12.98 3.094 24.426 9.763 32.637 19.145.05.062.109.118.161.179.543.626 1.072 1.264 1.586 1.914 9.77 12.356 13.494 27.721 10.77 44.439-1.371 8.24-4.512 17.381-16.463 24.463-9.539-7.034-26.11-6.834-38.722-4.197-10.554 2.206-30.442 8.556-45.067 26.31-11.025 13.398-16.126 26.811-15.165 39.871.016.629.045 1.258.086 1.886h-62.535c.703-3.12 1.113-6.308 1.206-9.52.967-13.066-4.133-26.484-15.163-39.89-7.831-9.516-17.833-16.432-28.302-21.026 5.449-4.766 11.671-8.225 18.378-10.323zm106.322 78.178c-.004-.203-.014-.407-.031-.61-.631-7.802 2.952-16.502 10.646-25.852 18.316-22.237 51.37-22.908 56.521-18.734 1.188.992 4.587 7.311 5.047 18.906.244 6.142-.248 17.415-5.523 28.872h-66.492c-.095-.862-.151-1.723-.168-2.582zm-168.37-52.84c5.148-4.192 38.202-3.55 56.528 18.72 7.698 9.356 11.281 18.056 10.65 25.858-.016.191-.025.383-.03.575-.082 3.521-.803 6.996-2.088 10.268h-60.249c-14.996-22.022-9.634-51.405-4.811-55.421zm277.659 293.748h-220.466c-9.744 0-12.371-11.971-12.799-14.372l-2.185-12.25h80.311c5.523 0 10.001-4.478 10.001-10.001s-4.477-10.001-10.001-10.001h-83.878l-22.73-127.432h303.029l-22.73 127.433h-83.878c-5.523 0-10.001 4.478-10.001 10.001s4.477 10.001 10.001 10.001h80.311l-2.181 12.229c-.435 2.403-3.092 14.392-12.804 14.392zm69.524-206.191c0 6.691-5.443 12.134-12.134 12.134h-335.246c-6.691 0-12.134-5.444-12.134-12.134 0-6.687 5.437-12.128 12.123-12.134h.019 71.388c.005 0 .01.001.015.001s89.425-.001 89.425-.001h80.432 78.177c.025 0 .049.003.074.003s.049-.003.074-.003h15.654c6.69-.001 12.133 5.443 12.133 12.134zm-40.434-81.745c7.982 14.102 9.681 31.138 5.051 49.609h-55.38c5.314-16.336 5.327-33.86 1.43-46.875 11.012-6.605 18.539-15.504 22.731-26.919 9.226 4.233 19.29 12.034 26.168 24.185zm66.773-151.098-89.841 89.844c-1.67-10.567-5.519-20.532-11.413-29.397l80.849-80.852c2.703-2.703 6.326-4.192 10.202-4.192s7.499 1.488 10.213 4.201c2.71 2.702 4.202 6.323 4.202 10.193s-1.492 7.491-4.212 10.203z"/><path d="m240.738 445.376c-5.523 0-10.001 4.478-10.001 10.001s4.477 10.001 10.001 10.001h.028c5.523 0 9.986-4.478 9.986-10.001s-4.49-10.001-10.014-10.001z"/></g></g></svg>