<?xml version="1.0" encoding="utf-8"?>
<!-- Generator: Adobe Illustrator 20.1.0, SVG Export Plug-In . SVG Version: 6.00 Build 0)  -->
<svg version="1.1" id="Layer_1" xmlns="http://www.w3.org/2000/svg" xmlns:xlink="http://www.w3.org/1999/xlink" x="0px" y="0px"
	 viewBox="0 0 512 512" style="enable-background:new 0 0 512 512;" xml:space="preserve">
<path d="M221.8,394.2l65.9-89.9c29.5-40.2,55.9-80.6,55.9-132.5C343.6,77.3,266.9,0.4,172.5,0h-0.7C77.1,0,0,77.1,0,171.8
	c0,51.9,26.4,92.3,55.9,132.5l65.9,89.9H45.2L0.8,512h342.1l-44.4-117.8H221.8z M74,290.9C44.8,251,20.6,214.3,20.6,168.6
	c0-83.1,67.4-150.8,150.5-151.2h0.7c83.4,0,151.2,67.8,151.2,151.2c0,45.8-24.2,82.5-53.4,122.3c0,0-93.8,128.3-97.6,133.5L74,290.9
	z M27.9,497L58,407h72.4l41.1,56c0,0,25.9-34.1,38.9-56H285l33.8,89.4L27.9,497z"/>
<path d="M277.6,171.8c0-58.3-47.5-105.8-105.8-105.8S66,113.5,66,171.8c0,58.3,47.5,105.8,105.8,105.8S277.6,230.1,277.6,171.8z
	 M171.8,256c-46.4,0-84.2-37.8-84.2-84.2c0-46.4,37.8-84.2,84.2-84.2c46.4,0,84.2,37.8,84.2,84.2C256,218.2,218.2,256,171.8,256z"/>
</svg>
